# xmcd
# 
# Track frame offsets:
#     150
#     14657
#     34217
#     62600
#     90094
#     119928
#     124571
#     135242
# 
# Disc length: 2274
# 
# Revision: 0
# Processed by: cddbd v1.5.2PL0 Copyright (c) Steve Scherf et al.
# Submitted via: fre:ac v1.0.17
# 
DISCID=6408e008
DTITLE=Avenger - Bohemian Dark Metal
DYEAR=0
DGENRE=Black Metal
TTITLE0=Vítej zpátky
TTITLE1=Faleš a apatie
TTITLE2=Duševní chirurgie
TTITLE3=Vstříc dálkám
TTITLE4=Umírání životem
TTITLE5=Z jeho krve
TTITLE6=Hleďme, plamen duše!
TTITLE7=Dark metal
EXTD=
EXTT0=
EXTT1=
EXTT2=
EXTT3=
EXTT4=
EXTT5=
EXTT6=
EXTT7=
PLAYORDER=
